<svg version="1.1" id="Layer_1" xmlns="http://www.w3.org/2000/svg" xmlns:xlink="http://www.w3.org/1999/xlink" x="0px" y="0px"
	 width="100%" viewBox="0 0 1080 1080" enable-background="new 0 0 1080 1080" xml:space="preserve">
<path fill="#000000" opacity="1.000000" stroke="none" 
	d="
M1.000000,419.000000 
	C1.000000,279.349396 1.000000,140.198792 1.000000,1.024089 
	C360.942383,1.024089 720.884766,1.024089 1080.913574,1.024089 
	C1080.913574,360.900818 1080.913574,720.801697 1080.913574,1080.851318 
	C721.000061,1080.851318 361.000031,1080.851318 1.000000,1080.851318 
	C1.000000,860.448059 1.000000,639.974060 1.000000,419.000000 
M430.233215,178.085709 
	C429.812408,177.729309 429.391602,177.372910 428.789978,176.339951 
	C422.189850,165.597290 416.218933,154.395889 408.814117,144.239929 
	C401.285370,133.914032 390.898010,127.032143 377.190094,124.940231 
	C374.163666,119.585526 371.531952,113.954712 368.022736,108.937721 
	C362.045258,100.392105 356.304443,91.453445 349.032806,84.094337 
	C338.326233,73.259003 324.010925,71.136047 309.307434,71.146477 
	C247.999039,71.189987 186.690613,71.142548 125.382256,71.203224 
	C120.063904,71.208488 114.719246,71.517723 109.432922,72.102577 
	C91.584541,74.077240 81.660370,83.449303 78.971779,101.080513 
	C78.148399,106.480064 77.915421,112.015022 77.914368,117.488068 
	C77.865150,372.384430 77.870712,627.280823 77.879814,882.177185 
	C77.879944,885.841248 77.858459,889.514832 78.095276,893.167908 
	C79.520844,915.157532 90.243622,926.216553 112.087936,928.103149 
	C118.052193,928.618164 124.055061,928.685974 130.191376,929.884888 
	C130.469482,936.194580 130.500229,942.526794 131.072388,948.809692 
	C132.742767,967.153015 141.988800,977.315430 160.172272,980.210266 
	C167.685791,981.406433 175.388718,981.412903 183.006607,982.901611 
	C184.097321,992.778564 184.458115,1002.809204 186.496811,1012.486450 
	C188.310059,1021.093445 194.489395,1027.433838 202.920822,1029.934692 
	C210.477127,1032.176025 218.534164,1033.783813 226.380188,1033.825928 
	C285.034241,1034.140991 343.690826,1034.049316 402.346252,1033.916870 
	C408.131042,1033.903809 414.006378,1033.216187 419.677765,1032.052612 
	C432.398743,1029.442627 441.031738,1021.808716 443.854462,1009.010620 
	C445.414673,1001.936646 445.964508,994.511047 445.973175,987.242798 
	C446.114990,868.265503 446.097565,749.287964 446.837067,630.378540 
	C449.846619,631.306030 452.856140,632.233582 455.937561,633.871704 
	C460.336914,641.897095 464.364197,650.155762 469.216705,657.897095 
	C478.053619,671.994873 490.127686,681.925232 507.496521,685.217651 
	C507.954559,685.535034 508.412628,685.852417 508.931732,686.887268 
	C514.670593,696.800171 519.973511,707.000488 526.267822,716.547180 
	C532.912842,726.625916 542.697937,733.255493 554.382874,736.057861 
	C563.050171,738.136414 572.088379,739.739685 580.955261,739.710388 
	C605.672913,739.628845 630.575806,742.152283 655.110779,736.931152 
	C655.119812,785.332214 655.104187,833.733398 655.174927,882.134338 
	C655.182190,887.110413 655.484131,892.110229 656.030273,897.056946 
	C657.925842,914.225098 667.103210,924.392944 684.121155,927.260803 
	C691.940002,928.578430 699.992859,928.507324 707.925842,929.994202 
	C707.966797,934.986328 707.834839,939.986938 708.079468,944.969055 
	C709.005371,963.828003 717.608337,976.108032 733.509216,979.303162 
	C742.208496,981.051331 751.327148,980.712280 760.300171,981.519104 
	C760.300171,981.519104 760.401611,981.702087 760.320923,982.647461 
	C760.594543,989.130432 760.470642,995.659607 761.218445,1002.087402 
	C763.215332,1019.251953 772.614380,1029.582764 788.776855,1032.564209 
	C793.501648,1033.435791 798.367493,1033.928955 803.169617,1033.936035 
	C864.493408,1034.025757 925.817505,1034.050659 987.141052,1033.904541 
	C992.916809,1033.890747 998.813843,1033.132935 1004.437561,1031.802979 
	C1015.799927,1029.115967 1024.033691,1022.323364 1026.864014,1010.698425 
	C1028.580933,1003.647095 1029.776978,996.264587 1029.781006,989.030029 
	C1029.926636,733.236023 1029.915405,477.441986 1029.826050,221.647980 
	C1029.823975,215.696854 1029.089355,209.667969 1027.980835,203.810730 
	C1025.295898,189.622589 1016.306396,180.437012 1002.134766,178.241394 
	C993.966431,176.975861 985.557312,177.264587 977.078674,176.441772 
	C977.078674,176.441772 976.868530,176.045349 976.976196,175.107727 
	C976.959595,170.460724 977.133667,165.803879 976.894043,161.168396 
	C975.725891,138.567490 965.616699,127.513992 943.350586,124.763924 
	C937.117004,123.994019 930.785583,124.016167 924.431091,122.781769 
	C924.283203,116.952736 924.372864,111.106133 923.943726,105.297882 
	C922.533875,86.217766 912.485352,75.189522 893.899414,72.285721 
	C889.632385,71.619064 885.275940,71.221062 880.960083,71.216522 
	C817.136841,71.149399 753.313477,71.183334 689.490173,71.160065 
	C672.152039,71.153748 656.883972,76.203362 645.654297,89.992638 
	C640.637512,96.152893 636.100769,102.845253 632.264832,109.802620 
	C610.657715,148.992386 589.364502,188.355057 567.894836,227.620789 
	C553.609009,253.748108 539.206970,279.811920 524.310730,305.539520 
	C523.737122,304.727448 523.080750,303.961243 522.601990,303.096649 
	C508.481689,277.594543 494.392639,252.075134 480.267731,226.575577 
	C473.333130,214.056580 467.143951,200.954422 456.413452,191.075500 
	C449.171173,184.407974 441.260834,178.517975 430.233215,178.085709 
z"/>
<path fill="#E28743" opacity="1.000000" stroke="none" 
	d="
M455.865692,633.161011 
	C452.856140,632.233582 449.846619,631.306030 446.142517,630.176025 
	C430.948425,624.352905 420.996948,613.821716 413.620331,600.506104 
	C407.109344,588.752991 400.591064,577.003845 394.047424,564.939575 
	C376.750275,532.818848 359.481689,501.011444 342.213074,469.204041 
	C341.804657,469.325562 341.396210,469.447052 340.987793,469.568542 
	C340.987793,471.665436 340.987793,473.762329 340.987793,475.859222 
	C340.987518,611.476868 340.999390,747.094543 340.941864,882.712219 
	C340.939636,888.022095 340.571686,893.371826 339.862701,898.634033 
	C337.735291,914.423706 328.890594,924.029663 313.278564,927.063782 
	C307.109741,928.262756 300.721893,928.787537 294.429321,928.822449 
	C257.278656,929.028442 220.126724,928.999817 182.511169,928.991577 
	C164.711472,928.941650 147.375839,928.950378 130.040207,928.959106 
	C124.055061,928.685974 118.052193,928.618164 112.087936,928.103149 
	C90.243622,926.216553 79.520844,915.157532 78.095276,893.167908 
	C77.858459,889.514832 77.879944,885.841248 77.879814,882.177185 
	C77.870712,627.280823 77.865150,372.384430 77.914368,117.488068 
	C77.915421,112.015022 78.148399,106.480064 78.971779,101.080513 
	C81.660370,83.449303 91.584541,74.077240 109.432922,72.102577 
	C114.719246,71.517723 120.063904,71.208488 125.382256,71.203224 
	C186.690613,71.142548 247.999039,71.189987 309.307434,71.146477 
	C324.010925,71.136047 338.326233,73.259003 349.032806,84.094337 
	C356.304443,91.453445 362.045258,100.392105 368.022736,108.937721 
	C371.531952,113.954712 374.163666,119.585526 377.506531,125.511002 
	C387.259216,143.034866 396.695526,159.987961 406.219971,177.278885 
	C417.701660,198.334702 429.036072,219.085510 440.504303,239.762100 
	C453.668121,263.495789 466.735077,287.287811 480.280182,310.803314 
	C486.278656,321.217194 496.286377,324.299774 508.553528,320.811890 
	C511.436371,319.871735 514.640076,319.517334 516.313171,317.730133 
	C519.610046,314.208435 522.057983,309.891937 524.857056,305.904175 
	C539.206970,279.811920 553.609009,253.748108 567.894836,227.620789 
	C589.364502,188.355057 610.657715,148.992386 632.264832,109.802620 
	C636.100769,102.845253 640.637512,96.152893 645.654297,89.992638 
	C656.883972,76.203362 672.152039,71.153748 689.490173,71.160065 
	C753.313477,71.183334 817.136841,71.149399 880.960083,71.216522 
	C885.275940,71.221062 889.632385,71.619064 893.899414,72.285721 
	C912.485352,75.189522 922.533875,86.217766 923.943726,105.297882 
	C924.372864,111.106133 924.283203,116.952736 924.422363,123.716194 
	C924.468079,141.712341 924.522583,158.774063 924.486328,176.306152 
	C924.330200,179.606934 924.207764,182.437378 924.207642,185.267807 
	C924.198792,416.552673 924.200806,647.837524 924.190796,879.122375 
	C924.190613,884.120361 924.241516,889.128662 923.959290,894.114563 
	C922.861084,913.509216 912.352661,925.135071 893.403320,927.758728 
	C888.142212,928.487183 882.787781,928.832153 877.474670,928.848511 
	C838.317627,928.968933 799.160156,928.961609 759.535522,928.952637 
	C742.025269,928.962585 724.982483,929.014282 707.939636,929.065979 
	C699.992859,928.507324 691.940002,928.578430 684.121155,927.260803 
	C667.103210,924.392944 657.925842,914.225098 656.030273,897.056946 
	C655.484131,892.110229 655.182190,887.110413 655.174927,882.134338 
	C655.104187,833.733398 655.119812,785.332214 655.127930,736.001343 
	C655.141296,727.436401 655.145752,719.801270 655.132141,712.166077 
	C655.076172,680.797974 655.014648,649.429932 655.018188,617.592773 
	C655.081116,567.937927 655.081116,518.752197 655.081116,469.566467 
	C653.284607,470.666748 652.486389,471.890198 651.794006,473.170929 
	C629.923096,513.623596 607.755981,553.920105 586.313354,594.598572 
	C573.028198,619.801575 553.763855,634.411011 524.458069,634.244690 
	C509.974487,634.162476 495.487274,634.725403 480.537659,634.953857 
	C472.004333,634.327881 463.934998,633.744446 455.865692,633.161011 
z"/>
<path fill="#442914" opacity="1.000000" stroke="none" 
	d="
M977.256531,176.853714 
	C985.557312,177.264587 993.966431,176.975861 1002.134766,178.241394 
	C1016.306396,180.437012 1025.295898,189.622589 1027.980835,203.810730 
	C1029.089355,209.667969 1029.823975,215.696854 1029.826050,221.647980 
	C1029.915405,477.441986 1029.926636,733.236023 1029.781006,989.030029 
	C1029.776978,996.264587 1028.580933,1003.647095 1026.864014,1010.698425 
	C1024.033691,1022.323364 1015.799927,1029.115967 1004.437561,1031.802979 
	C998.813843,1033.132935 992.916809,1033.890747 987.141052,1033.904541 
	C925.817505,1034.050659 864.493408,1034.025757 803.169617,1033.936035 
	C798.367493,1033.928955 793.501648,1033.435791 788.776855,1032.564209 
	C772.614380,1029.582764 763.215332,1019.251953 761.218445,1002.087402 
	C760.470642,995.659607 760.594543,989.130432 760.799438,982.171570 
	C804.773499,981.720703 848.269104,981.815247 891.764404,981.735046 
	C908.253479,981.704651 924.750671,981.528564 941.228149,980.956604 
	C961.600403,980.249329 972.929565,970.198303 976.124390,950.195984 
	C976.984619,944.810120 976.979370,939.248962 976.980225,933.768188 
	C977.018677,684.459045 977.012939,435.149933 977.023926,185.840820 
	C977.024048,182.845123 977.175598,179.849411 977.256531,176.853714 
z"/>
<path fill="#93582C" opacity="1.000000" stroke="none" 
	d="
M977.167603,176.647736 
	C977.175598,179.849411 977.024048,182.845123 977.023926,185.840820 
	C977.012939,435.149933 977.018677,684.459045 976.980225,933.768188 
	C976.979370,939.248962 976.984619,944.810120 976.124390,950.195984 
	C972.929565,970.198303 961.600403,980.249329 941.228149,980.956604 
	C924.750671,981.528564 908.253479,981.704651 891.764404,981.735046 
	C848.269104,981.815247 804.773499,981.720703 760.839844,981.698853 
	C760.401611,981.702087 760.300171,981.519104 760.234192,981.000427 
	C760.113098,963.319336 760.057983,946.156921 760.002808,928.994507 
	C799.160156,928.961609 838.317627,928.968933 877.474670,928.848511 
	C882.787781,928.832153 888.142212,928.487183 893.403320,927.758728 
	C912.352661,925.135071 922.861084,913.509216 923.959290,894.114563 
	C924.241516,889.128662 924.190613,884.120361 924.190796,879.122375 
	C924.200806,647.837524 924.198792,416.552673 924.207642,185.267807 
	C924.207764,182.437378 924.330200,179.606934 924.906372,176.354950 
	C942.567566,175.970718 959.718018,176.008041 976.868530,176.045349 
	C976.868530,176.045349 977.078674,176.441772 977.167603,176.647736 
z"/>
<path fill="#442914" opacity="1.000000" stroke="none" 
	d="
M394.075989,565.252991 
	C400.591064,577.003845 407.109344,588.752991 413.620331,600.506104 
	C420.996948,613.821716 430.948425,624.352905 445.781982,630.141968 
	C446.097565,749.287964 446.114990,868.265503 445.973175,987.242798 
	C445.964508,994.511047 445.414673,1001.936646 443.854462,1009.010620 
	C441.031738,1021.808716 432.398743,1029.442627 419.677765,1032.052612 
	C414.006378,1033.216187 408.131042,1033.903809 402.346252,1033.916870 
	C343.690826,1034.049316 285.034241,1034.140991 226.380188,1033.825928 
	C218.534164,1033.783813 210.477127,1032.176025 202.920822,1029.934692 
	C194.489395,1027.433838 188.310059,1021.093445 186.496811,1012.486450 
	C184.458115,1002.809204 184.097321,992.778564 183.030426,982.230835 
	C183.054245,981.560120 183.133957,981.164612 183.573181,981.319031 
	C186.337799,981.574402 188.663132,981.762512 190.988541,981.763428 
	C236.635406,981.780823 282.282349,981.821838 327.929077,981.741272 
	C338.082092,981.723328 348.241821,981.427734 358.385315,980.969116 
	C378.039062,980.080383 389.893402,969.611633 392.667053,950.513855 
	C393.524994,944.606323 393.755524,938.563721 393.758545,932.582642 
	C393.818817,813.134460 393.801636,693.686279 393.815063,574.238098 
	C393.815399,571.243042 393.985199,568.248047 394.075989,565.252991 
z"/>
<path fill="#93582C" opacity="1.000000" stroke="none" 
	d="
M481.001709,634.996460 
	C495.487274,634.725403 509.974487,634.162476 524.458069,634.244690 
	C553.763855,634.411011 573.028198,619.801575 586.313354,594.598572 
	C607.755981,553.920105 629.923096,513.623596 651.794006,473.170929 
	C652.486389,471.890198 653.284607,470.666748 655.081116,469.566467 
	C655.081116,518.752197 655.081116,567.937927 654.770386,617.817871 
	C647.570862,630.881042 640.917114,643.388184 633.740967,655.588074 
	C621.575562,676.269775 603.122986,686.743958 579.268982,686.909607 
	C555.805725,687.072571 532.336975,686.448486 508.870667,686.169800 
	C508.412628,685.852417 507.954559,685.535034 507.173706,684.724976 
	C503.908539,678.670959 500.949280,673.118469 498.027435,667.546326 
	C492.341125,656.702148 486.675751,645.847046 481.001709,634.996460 
z"/>
<path fill="#442914" opacity="1.000000" stroke="none" 
	d="
M508.901184,686.528564 
	C532.336975,686.448486 555.805725,687.072571 579.268982,686.909607 
	C603.122986,686.743958 621.575562,676.269775 633.740967,655.588074 
	C640.917114,643.388184 647.570862,630.881042 654.707397,618.286987 
	C655.014648,649.429932 655.076172,680.797974 655.132141,712.166077 
	C655.145752,719.801270 655.141296,727.436401 655.073242,735.535461 
	C630.575806,742.152283 605.672913,739.628845 580.955261,739.710388 
	C572.088379,739.739685 563.050171,738.136414 554.382874,736.057861 
	C542.697937,733.255493 532.912842,726.625916 526.267822,716.547180 
	C519.973511,707.000488 514.670593,696.800171 508.901184,686.528564 
z"/>
<path fill="#93582C" opacity="1.000000" stroke="none" 
	d="
M508.182434,320.749939 
	C496.286377,324.299774 486.278656,321.217194 480.280182,310.803314 
	C466.735077,287.287811 453.668121,263.495789 440.504303,239.762100 
	C429.036072,219.085510 417.701660,198.334702 406.678284,177.276108 
	C414.355927,176.962494 421.663330,176.989502 428.970764,177.016510 
	C429.391602,177.372910 429.812408,177.729309 430.510132,178.606049 
	C431.414307,180.480316 431.960632,181.878952 432.680573,183.181641 
	C452.608765,219.240356 472.585602,255.272232 492.476959,291.351227 
	C497.840698,301.079926 502.954132,310.946594 508.182434,320.749939 
z"/>
<path fill="#442914" opacity="1.000000" stroke="none" 
	d="
M508.553528,320.811890 
	C502.954132,310.946594 497.840698,301.079926 492.476959,291.351227 
	C472.585602,255.272232 452.608765,219.240356 432.680573,183.181641 
	C431.960632,181.878952 431.414307,180.480316 430.718872,178.786911 
	C441.260834,178.517975 449.171173,184.407974 456.413452,191.075500 
	C467.143951,200.954422 473.333130,214.056580 480.267731,226.575577 
	C494.392639,252.075134 508.481689,277.594543 522.601990,303.096649 
	C523.080750,303.961243 523.737122,304.727448 524.583862,305.721863 
	C522.057983,309.891937 519.610046,314.208435 516.313171,317.730133 
	C514.640076,319.517334 511.436371,319.871735 508.553528,320.811890 
z"/>
<path fill="#704322" opacity="1.000000" stroke="none" 
	d="
M130.115784,929.421997 
	C147.375839,928.950378 164.711472,928.941650 182.516449,929.456360 
	C183.035172,947.041382 183.084564,964.102966 183.133957,981.164612 
	C183.133957,981.164612 183.054245,981.560120 183.029877,981.760315 
	C175.388718,981.412903 167.685791,981.406433 160.172272,980.210266 
	C141.988800,977.315430 132.742767,967.153015 131.072388,948.809692 
	C130.500229,942.526794 130.469482,936.194580 130.115784,929.421997 
z"/>
<path fill="#714422" opacity="1.000000" stroke="none" 
	d="
M976.922363,175.576538 
	C959.718018,176.008041 942.567566,175.970718 924.997070,175.884598 
	C924.522583,158.774063 924.468079,141.712341 924.456299,124.162811 
	C930.785583,124.016167 937.117004,123.994019 943.350586,124.763924 
	C965.616699,127.513992 975.725891,138.567490 976.894043,161.168396 
	C977.133667,165.803879 976.959595,170.460724 976.922363,175.576538 
z"/>
<path fill="#714422" opacity="1.000000" stroke="none" 
	d="
M759.535461,928.952698 
	C760.057983,946.156921 760.113098,963.319336 760.212463,980.898071 
	C751.327148,980.712280 742.208496,981.051331 733.509216,979.303162 
	C717.608337,976.108032 709.005371,963.828003 708.079468,944.969055 
	C707.834839,939.986938 707.966797,934.986328 707.932739,929.530090 
	C724.982483,929.014282 742.025269,928.962585 759.535461,928.952698 
z"/>
<path fill="#714422" opacity="1.000000" stroke="none" 
	d="
M428.880371,176.678223 
	C421.663330,176.989502 414.355927,176.962494 406.590149,176.938278 
	C396.695526,159.987961 387.259216,143.034866 377.772888,125.734680 
	C390.898010,127.032143 401.285370,133.914032 408.814117,144.239929 
	C416.218933,154.395889 422.189850,165.597290 428.880371,176.678223 
z"/>
<path fill="#704322" opacity="1.000000" stroke="none" 
	d="
M480.537659,634.953857 
	C486.675751,645.847046 492.341125,656.702148 498.027435,667.546326 
	C500.949280,673.118469 503.908539,678.670959 506.939362,684.573975 
	C490.127686,681.925232 478.053619,671.994873 469.216705,657.897095 
	C464.364197,650.155762 460.336914,641.897095 455.901611,633.516357 
	C463.934998,633.744446 472.004333,634.327881 480.537659,634.953857 
z"/>
<path fill="#93582C" opacity="1.000000" stroke="none" 
	d="
M183.573181,981.319031 
	C183.084564,964.102966 183.035172,947.041382 182.980499,929.514954 
	C220.126724,928.999817 257.278656,929.028442 294.429321,928.822449 
	C300.721893,928.787537 307.109741,928.262756 313.278564,927.063782 
	C328.890594,924.029663 337.735291,914.423706 339.862701,898.634033 
	C340.571686,893.371826 340.939636,888.022095 340.941864,882.712219 
	C340.999390,747.094543 340.987518,611.476868 340.987793,475.859222 
	C340.987793,473.762329 340.987793,471.665436 340.987793,469.568542 
	C341.396210,469.447052 341.804657,469.325562 342.213074,469.204041 
	C359.481689,501.011444 376.750275,532.818848 394.047424,564.939575 
	C393.985199,568.248047 393.815399,571.243042 393.815063,574.238098 
	C393.801636,693.686279 393.818817,813.134460 393.758545,932.582642 
	C393.755524,938.563721 393.524994,944.606323 392.667053,950.513855 
	C389.893402,969.611633 378.039062,980.080383 358.385315,980.969116 
	C348.241821,981.427734 338.082092,981.723328 327.929077,981.741272 
	C282.282349,981.821838 236.635406,981.780823 190.988541,981.763428 
	C188.663132,981.762512 186.337799,981.574402 183.573181,981.319031 
z"/>
</svg>